<?xml version="1.0" encoding="iso-8859-1"?>
<!-- Generator: Adobe Illustrator 19.0.0, SVG Export Plug-In . SVG Version: 6.00 Build 0)  -->
<svg version="1.1" id="Capa_1" xmlns="http://www.w3.org/2000/svg" xmlns:xlink="http://www.w3.org/1999/xlink" x="0px" y="0px"
	 viewBox="0 0 512 512" style="enable-background:new 0 0 512 512;" xml:space="preserve">
<path style="fill:#B9B9B9;" d="M332.8,76.8h17.067c28.279,0,51.2,22.921,51.2,51.2v8.533l0,0H332.8l0,0V76.8L332.8,76.8z"/>
<path style="fill:#AAC16B;" d="M460.8,256h17.067v204.8H460.8V256z"/>
<g>
	<path style="fill:#89B140;" d="M426.667,247.467H512v17.067h-85.333V247.467z"/>
	<path style="fill:#89B140;" d="M460.8,213.333h17.067v85.333H460.8V213.333z"/>
	<path style="fill:#89B140;" d="M433.126,280.141l60.339-60.339l12.066,12.066l-60.339,60.339L433.126,280.141z"/>
	<path style="fill:#89B140;" d="M433.126,231.868l12.066-12.066l60.348,60.339l-12.066,12.066L433.126,231.868z"/>
</g>
<path style="fill:#AAC16B;" d="M34.133,256H51.2v196.267H34.133V256z"/>
<g>
	<path style="fill:#89B140;" d="M0,247.467h85.333v17.067H0V247.467z"/>
	<path style="fill:#89B140;" d="M34.133,213.333H51.2v85.333H34.133V213.333z"/>
	<path style="fill:#89B140;" d="M6.468,231.868l12.066-12.066l60.348,60.339l-12.066,12.066L6.468,231.868z"/>
	<path style="fill:#89B140;" d="M6.468,280.132l60.339-60.339l12.066,12.066l-60.339,60.339L6.468,280.132z"/>
</g>
<path style="fill:#B9B9B9;" d="M179.2,136.533h-68.267l0,0V128c0-28.279,22.921-51.2,51.2-51.2H179.2l0,0V136.533L179.2,136.533z"/>
<path style="fill:#F0F0F0;" d="M179.2,76.8h153.6v426.667H179.2V76.8z"/>
<path style="fill:#F9E0A0;" d="M179.2,418.133h153.6v85.333H179.2V418.133z"/>
<g>
	<path style="fill:#B9B9B9;" d="M221.867,315.733h68.267v34.133h-68.267V315.733z"/>
	<path style="fill:#B9B9B9;" d="M221.867,247.467h68.267V281.6h-68.267V247.467z"/>
	<path style="fill:#B9B9B9;" d="M221.867,179.2h68.267v34.133h-68.267V179.2z"/>
</g>
<path style="fill:#F9E0A0;" d="M332.8,136.533h68.267v366.933H332.8V136.533z"/>
<g>
	<path style="fill:#F0F0F0;" d="M358.4,298.667h17.067v17.067H358.4V298.667z"/>
	<path style="fill:#F0F0F0;" d="M358.4,332.8h17.067v17.067H358.4V332.8z"/>
	<path style="fill:#F0F0F0;" d="M358.4,366.933h17.067V384H358.4V366.933z"/>
	<path style="fill:#F0F0F0;" d="M358.4,230.4h17.067v17.067H358.4V230.4z"/>
	<path style="fill:#F0F0F0;" d="M358.4,264.533h17.067V281.6H358.4V264.533z"/>
	<path style="fill:#F0F0F0;" d="M358.4,196.267h17.067v17.067H358.4V196.267z"/>
	<path style="fill:#F0F0F0;" d="M358.4,162.133h17.067V179.2H358.4V162.133z"/>
</g>
<path style="fill:#89B140;" d="M469.333,435.2h-17.067c0-18.85-15.283-34.133-34.133-34.133h-17.067v102.4h102.4v-34.133
	C503.467,450.483,488.184,435.2,469.333,435.2z"/>
<path style="fill:#F4CA62;" d="M196.267,8.533h119.467c9.429,0,17.067,7.637,17.067,17.067l0,0c0,9.429-7.637,17.067-17.067,17.067
	H196.267c-9.429,0-17.067-7.637-17.067-17.067l0,0C179.2,16.171,186.837,8.533,196.267,8.533z"/>
<path style="fill:#F9E0A0;" d="M196.267,42.667h119.467V76.8H196.267V42.667z"/>
<path style="fill:#F4CA62;" d="M102.4,68.267h307.2v17.067H102.4V68.267z"/>
<path style="fill:#F9E0A0;" d="M179.2,503.467h-68.267V136.533H179.2V503.467z"/>
<g>
	<path style="fill:#F0F0F0;" d="M136.533,298.667H153.6v17.067h-17.067V298.667z"/>
	<path style="fill:#F0F0F0;" d="M136.533,332.8H153.6v17.067h-17.067V332.8z"/>
	<path style="fill:#F0F0F0;" d="M136.533,366.933H153.6V384h-17.067V366.933z"/>
	<path style="fill:#F0F0F0;" d="M136.533,230.4H153.6v17.067h-17.067V230.4z"/>
	<path style="fill:#F0F0F0;" d="M136.533,264.533H153.6V281.6h-17.067V264.533z"/>
	<path style="fill:#F0F0F0;" d="M136.533,196.267H153.6v17.067h-17.067V196.267z"/>
	<path style="fill:#F0F0F0;" d="M136.533,162.133H153.6V179.2h-17.067V162.133z"/>
</g>
<path style="fill:#89B140;" d="M42.667,435.2h17.067c0-18.85,15.283-34.133,34.133-34.133h17.067v102.4H8.533v-34.133
	C8.533,450.483,23.817,435.2,42.667,435.2z"/>
<g>
	<path style="fill:#F4CA62;" d="M68.267,128H179.2v17.067H68.267V128z"/>
	<path style="fill:#F4CA62;" d="M247.467,452.267h17.067c9.429,0,17.067,7.637,17.067,17.067v34.133l0,0h-51.2l0,0v-34.133
		C230.4,459.904,238.037,452.267,247.467,452.267z"/>
</g>
<path style="fill:#B9B9B9;" d="M221.867,110.933h68.267v34.133h-68.267V110.933z"/>
<g>
	<path style="fill:#DBDBDB;" d="M221.867,179.2H256v34.133h-34.133V179.2z"/>
	<path style="fill:#DBDBDB;" d="M221.867,247.467H256V281.6h-34.133V247.467z"/>
	<path style="fill:#DBDBDB;" d="M221.867,315.733H256v34.133h-34.133V315.733z"/>
</g>
<path style="fill:#F4CA62;" d="M179.2,384h153.6v34.133H179.2V384z"/>
<path style="fill:#DBDBDB;" d="M110.933,452.267H179.2v51.2h-68.267V452.267z"/>
<g>
	<path style="fill:#B9B9B9;" d="M110.933,418.133H179.2v34.133h-68.267V418.133z"/>
	<path style="fill:#B9B9B9;" d="M332.8,418.133h68.267v34.133H332.8V418.133z"/>
</g>
<path style="fill:#DBDBDB;" d="M332.8,452.267h68.267v51.2H332.8V452.267z"/>
<g>
	<path style="fill:#79A73A;" d="M34.133,477.867H51.2v17.067H34.133V477.867z"/>
	<path style="fill:#79A73A;" d="M68.267,477.867h17.067v17.067H68.267V477.867z"/>
	<path style="fill:#79A73A;" d="M426.667,477.867h17.067v17.067h-17.067V477.867z"/>
	<path style="fill:#79A73A;" d="M460.8,477.867h17.067v17.067H460.8V477.867z"/>
</g>
<path style="fill:#DBDBDB;" d="M221.867,110.933H256v34.133h-34.133V110.933z"/>
<path style="fill:#F4CA62;" d="M332.8,128h110.933v17.067H332.8V128z"/>
<path d="M341.333,512H170.667V68.267h170.667V512z M187.733,494.933h136.533v-409.6H187.733V494.933z"/>
<path d="M409.6,512h-85.333V128H409.6V512z M341.333,494.933h51.2V145.067h-51.2V494.933z"/>
<rect x="358.4" y="298.667" width="17.067" height="17.067"/>
<rect x="358.4" y="332.8" width="17.067" height="17.067"/>
<rect x="358.4" y="366.933" width="17.067" height="17.067"/>
<rect x="358.4" y="230.4" width="17.067" height="17.067"/>
<rect x="358.4" y="264.533" width="17.067" height="17.067"/>
<rect x="358.4" y="196.267" width="17.067" height="17.067"/>
<rect x="358.4" y="162.133" width="17.067" height="17.067"/>
<path d="M512,512H392.533V392.533h25.6c20.608,0,37.845,14.686,41.805,34.133h9.395c23.526,0,42.667,19.14,42.667,42.667V512z
	 M409.6,494.933h85.333v-25.6c0-14.114-11.486-25.6-25.6-25.6h-25.6V435.2c0-14.114-11.486-25.6-25.6-25.6H409.6V494.933z"/>
<rect x="460.8" y="256" width="17.067" height="179.2"/>
<rect x="426.667" y="247.467" width="85.333" height="17.067"/>
<rect x="460.8" y="213.333" width="17.067" height="85.333"/>
<g transform="matrix(0.7071 -0.7071 0.7071 0.7071 -5.104 47.678)">
	<rect x="145.493" y="474.255" width="85.333" height="17.067"/>
	<rect x="179.634" y="440.113" width="17.067" height="85.333"/>
</g>
<path d="M315.733,51.2H196.267c-14.114,0-25.6-11.486-25.6-25.6S182.153,0,196.267,0h119.467c14.114,0,25.6,11.486,25.6,25.6
	S329.847,51.2,315.733,51.2z M196.267,17.067c-4.702,0-8.533,3.831-8.533,8.533s3.831,8.533,8.533,8.533h119.467
	c4.71,0,8.533-3.831,8.533-8.533s-3.823-8.533-8.533-8.533H196.267z"/>
<rect x="187.733" y="42.667" width="17.067" height="34.133"/>
<rect x="307.2" y="42.667" width="17.067" height="34.133"/>
<rect x="102.4" y="68.267" width="307.2" height="17.067"/>
<rect x="332.8" y="128" width="110.933" height="17.067"/>
<path d="M187.733,512H102.4V128h85.333V512z M119.467,494.933h51.2V145.067h-51.2V494.933z"/>
<rect x="136.533" y="298.667" width="17.067" height="17.067"/>
<rect x="136.533" y="332.8" width="17.067" height="17.067"/>
<rect x="136.533" y="366.933" width="17.067" height="17.067"/>
<rect x="136.533" y="230.4" width="17.067" height="17.067"/>
<rect x="136.533" y="264.533" width="17.067" height="17.067"/>
<rect x="136.533" y="196.267" width="17.067" height="17.067"/>
<rect x="136.533" y="162.133" width="17.067" height="17.067"/>
<path d="M119.467,512H0v-42.667c0-23.526,19.14-42.667,42.667-42.667h9.395c3.959-19.447,21.205-34.133,41.805-34.133h25.6V512z
	 M17.067,494.933H102.4V409.6h-8.533c-14.114,0-25.6,11.486-25.6,25.6v8.533h-25.6c-14.114,0-25.6,11.486-25.6,25.6V494.933z"/>
<rect x="34.133" y="256" width="17.067" height="179.2"/>
<rect x="0" y="247.467" width="85.333" height="17.067"/>
<rect x="34.133" y="213.333" width="17.067" height="85.333"/>
<g transform="matrix(0.7071 -0.7071 0.7071 0.7071 -19.749 12.322)">
	<rect x="-136.706" y="173.762" width="17.067" height="85.333"/>
	<rect x="-170.841" y="207.904" width="85.333" height="17.067"/>
</g>
<rect x="68.267" y="128" width="110.933" height="17.067"/>
<path d="M290.133,512h-68.267v-42.667c0-14.114,11.486-25.6,25.6-25.6h17.067c14.114,0,25.6,11.486,25.6,25.6V512z M238.933,494.933
	h34.133v-25.6c0-4.71-3.823-8.533-8.533-8.533h-17.067c-4.702,0-8.533,3.823-8.533,8.533V494.933z"/>
<path d="M341.333,512H170.667V409.6h170.667V512z M187.733,494.933h136.533v-68.267H187.733V494.933z"/>
<path d="M264.533,153.6h-51.2v-51.2h51.2V153.6z M230.4,136.533h17.067v-17.067H230.4V136.533z"/>
<path d="M298.667,153.6h-85.333v-51.2h85.333V153.6z M230.4,136.533h51.2v-17.067h-51.2V136.533z"/>
<path d="M264.533,221.867h-51.2v-51.2h51.2V221.867z M230.4,204.8h17.067v-17.067H230.4V204.8z"/>
<path d="M298.667,221.867h-85.333v-51.2h85.333V221.867z M230.4,204.8h51.2v-17.067h-51.2V204.8z"/>
<path d="M264.533,290.133h-51.2v-51.2h51.2V290.133z M230.4,273.067h17.067V256H230.4V273.067z"/>
<path d="M298.667,290.133h-85.333v-51.2h85.333V290.133z M230.4,273.067h51.2V256h-51.2V273.067z"/>
<path d="M264.533,358.4h-51.2v-51.2h51.2V358.4z M230.4,341.333h17.067v-17.067H230.4V341.333z"/>
<path d="M298.667,358.4h-85.333v-51.2h85.333V358.4z M230.4,341.333h51.2v-17.067h-51.2V341.333z"/>
<path d="M341.333,426.667H170.667v-51.2h170.667V426.667z M187.733,409.6h136.533v-17.067H187.733V409.6z"/>
<path d="M187.733,512H102.4v-68.267h85.333V512z M119.467,494.933h51.2V460.8h-51.2V494.933z"/>
<path d="M187.733,460.8H102.4v-51.2h85.333V460.8z M119.467,443.733h51.2v-17.067h-51.2V443.733z"/>
<path d="M409.6,460.8h-85.333v-51.2H409.6V460.8z M341.333,443.733h51.2v-17.067h-51.2V443.733z"/>
<path d="M409.6,512h-85.333v-68.267H409.6V512z M341.333,494.933h51.2V460.8h-51.2V494.933z"/>
<rect x="34.133" y="477.867" width="17.067" height="17.067"/>
<rect x="68.267" y="477.867" width="17.067" height="17.067"/>
<rect x="426.667" y="477.867" width="17.067" height="17.067"/>
<rect x="460.8" y="477.867" width="17.067" height="17.067"/>
<path d="M187.733,145.067H102.4V128c0-32.939,26.795-59.733,59.733-59.733h25.6V145.067z M119.467,128h51.2V85.333h-8.533
	C138.607,85.333,119.467,104.474,119.467,128z"/>
<path d="M409.6,145.067h-85.333v-76.8h25.6c32.93,0,59.733,26.795,59.733,59.733V145.067z M341.333,128h51.2
	c0-23.526-19.14-42.667-42.667-42.667h-8.533V128z"/>
<g>
</g>
<g>
</g>
<g>
</g>
<g>
</g>
<g>
</g>
<g>
</g>
<g>
</g>
<g>
</g>
<g>
</g>
<g>
</g>
<g>
</g>
<g>
</g>
<g>
</g>
<g>
</g>
<g>
</g>
</svg>
